<svg width="991" height="535" viewBox="0 0 991 535" fill="none" xmlns="http://www.w3.org/2000/svg">
<path d="M30.8626 266.807H138.449V350.434H30.8626V266.807Z" fill="#3F3D56"/>
<path d="M12.3183 266.807H110.732V350.434H12.3183V266.807Z" fill="#FFD078"/>
<path d="M12.0497 350.768H111.133V266.473H12.0497V350.768ZM110.397 350.1H12.6525V267.141H110.397V350.1Z" fill="#3F3D56"/>
<path d="M46.0595 266.807V287.664L52.2186 284.254L56.972 287.463L62.6626 284.254L67.8848 287.664V266.807H46.0595Z" fill="#3F3D56"/>
<path d="M67.8852 307.852H90.5806V309.189H67.8852V307.852Z" fill="#3F3D56"/>
<path d="M67.8852 316.675H90.5806V318.012H67.8852V316.675Z" fill="#3F3D56"/>
<path d="M67.8852 325.5H90.5806V326.836H67.8852V325.5Z" fill="#3F3D56"/>
<path d="M24.5027 306.046H61.2573V328.975H24.5027V306.046Z" fill="#FEFEFE"/>
<path d="M24.1677 329.243H61.5918V305.646H24.1677V329.243ZM60.9223 328.574H24.8372V306.314H60.9223V328.574Z" fill="#3F3D56"/>
<path d="M135.503 365.742H106.782C105.443 365.742 104.105 366.344 103.301 367.413L88.7732 385.663C86.43 388.604 88.5055 392.883 92.2546 392.883H135.503V365.742Z" fill="#F27B79"/>
<path d="M92.2554 393.217H135.839V365.408H106.783C105.31 365.408 103.904 366.076 103.034 367.213L88.5062 385.462C87.3681 386.933 87.1004 388.871 87.9708 390.543C88.7072 392.147 90.3808 393.217 92.2554 393.217ZM135.169 392.548H92.2554C90.6486 392.548 89.2427 391.679 88.5062 390.208C87.8367 388.738 87.9708 387.066 88.975 385.863L103.503 367.614C104.306 366.611 105.444 366.076 106.716 366.076H135.102V392.548H135.169Z" fill="#3F3D56"/>
<path d="M428.135 251.03C428.135 253.504 426.127 255.442 423.717 255.442H409.256C406.779 255.442 404.837 253.437 404.837 251.03C404.837 248.557 406.846 246.618 409.256 246.618H423.717C426.127 246.551 428.135 248.557 428.135 251.03Z" fill="#3F3D56"/>
<path d="M373.572 256.245H391.38V281.446H373.572V256.245Z" fill="#3F3D56"/>
<path d="M419.432 443.152V295.819C419.432 283.318 409.256 273.157 396.736 273.157H331.127C318.607 273.157 308.431 283.318 308.431 295.819V431.521C308.431 443.018 299.126 452.31 287.61 452.31H269.2C257.684 452.31 248.379 443.018 248.379 431.521V372.226C248.379 372.226 248.847 354.311 259.894 351.704H146.483C146.483 351.704 99.3517 390.075 89.4433 451.909V458.728H419.432V443.152Z" fill="#FFD078"/>
<path d="M89.1087 459.062H419.767V295.819C419.767 283.118 409.457 272.823 396.736 272.823H331.127C318.407 272.823 308.097 283.118 308.097 295.819V431.521C308.097 442.818 298.925 451.976 287.611 451.976H269.2C257.886 451.976 248.714 442.818 248.714 431.521V372.226C248.714 372.026 249.249 354.579 260.028 352.038L262.84 351.37H146.417L146.35 351.437C146.216 351.504 134.366 361.263 121.512 378.376C109.595 394.219 94.3308 419.822 89.2427 451.843L89.1087 459.062ZM419.097 458.394H89.7782V451.909C94.8662 420.09 110.064 394.554 121.913 378.844C134.165 362.533 145.479 352.974 146.617 352.038H257.886C248.58 356.116 248.111 371.491 248.044 372.226V431.521C248.044 443.152 257.551 452.645 269.2 452.645H287.611C299.26 452.645 308.766 443.152 308.766 431.521V295.819C308.766 283.519 318.809 273.492 331.127 273.492H396.736C409.055 273.492 419.097 283.519 419.097 295.819V458.394Z" fill="#3F3D56"/>
<path d="M374.711 273.09H382.744V421.226H374.711V273.09Z" fill="#3F3D56"/>
<path d="M0.000167847 348.094H153.178V355.715H0.000167847V348.094Z" fill="#3F3D56"/>
<path d="M172.124 459.128H278.572V480.988H172.124V459.128Z" fill="#3F3D56"/>
<path d="M133.763 524.038C106.994 524.038 85.2928 499.407 85.2928 469.022C85.2928 438.638 106.994 414.006 133.763 414.006C160.533 414.006 182.234 438.638 182.234 469.022C182.234 499.407 160.533 524.038 133.763 524.038Z" fill="#2F2E41"/>
<path d="M125.595 502.379C108.18 502.379 94.0624 486.337 94.0624 466.548C94.0624 446.76 108.18 430.718 125.595 430.718C143.01 430.718 157.128 446.76 157.128 466.548C157.128 486.337 143.01 502.379 125.595 502.379Z" fill="#FEFEFE"/>
<path d="M125.595 502.713C143.203 502.713 157.463 486.469 157.463 466.549C157.463 446.628 143.136 430.384 125.595 430.384C108.055 430.384 93.7279 446.628 93.7279 466.549C93.7279 486.469 107.988 502.713 125.595 502.713ZM125.595 431.052C142.801 431.052 156.793 446.962 156.793 466.549C156.793 486.135 142.801 502.045 125.595 502.045C108.39 502.045 94.3974 486.135 94.3974 466.549C94.3974 446.962 108.39 431.052 125.595 431.052Z" fill="#3F3D56"/>
<path d="M142.266 466.749C142.266 474.704 138.517 481.79 126.533 481.79C119.503 481.79 116.892 474.704 116.892 466.749C116.892 458.794 119.57 452.31 126.533 452.31C138.517 452.31 142.266 458.727 142.266 466.749Z" fill="#3F3D56"/>
<path d="M125.73 481.189C118.704 481.189 113.009 474.724 113.009 466.749C113.009 458.775 118.704 452.31 125.73 452.31C132.755 452.31 138.45 458.775 138.45 466.749C138.45 474.724 132.755 481.189 125.73 481.189Z" fill="#FEFEFE"/>
<path d="M125.729 481.456C132.893 481.456 138.784 474.838 138.784 466.683C138.784 458.527 132.96 451.909 125.729 451.909C118.499 451.909 112.674 458.527 112.674 466.683C112.674 474.838 118.566 481.456 125.729 481.456ZM125.729 452.645C132.558 452.645 138.115 458.995 138.115 466.749C138.115 474.504 132.558 480.855 125.729 480.855C118.901 480.855 113.344 474.504 113.344 466.749C113.344 458.995 118.901 452.645 125.729 452.645Z" fill="#3F3D56"/>
<path d="M406.846 524.038C380.076 524.038 358.375 499.407 358.375 469.022C358.375 438.638 380.076 414.006 406.846 414.006C433.615 414.006 455.316 438.638 455.316 469.022C455.316 499.407 433.615 524.038 406.846 524.038Z" fill="#2F2E41"/>
<path d="M398.678 502.379C381.263 502.379 367.145 486.337 367.145 466.548C367.145 446.76 381.263 430.718 398.678 430.718C416.093 430.718 430.21 446.76 430.21 466.548C430.21 486.337 416.093 502.379 398.678 502.379Z" fill="#FEFEFE"/>
<path d="M398.678 502.713C416.285 502.713 430.545 486.469 430.545 466.549C430.545 446.628 416.218 430.384 398.678 430.384C381.138 430.384 366.811 446.628 366.811 466.549C366.811 486.469 381.071 502.713 398.678 502.713ZM398.678 431.052C415.884 431.052 429.876 446.962 429.876 466.549C429.876 486.135 415.884 502.045 398.678 502.045C381.472 502.045 367.48 486.135 367.48 466.549C367.48 446.962 381.472 431.052 398.678 431.052Z" fill="#3F3D56"/>
<path d="M415.348 466.749C415.348 474.704 411.599 481.189 399.615 481.189C392.586 481.189 389.974 474.704 389.974 466.749C389.974 458.794 392.653 452.31 399.615 452.31C411.599 452.31 415.348 458.727 415.348 466.749Z" fill="#3F3D56"/>
<path d="M398.812 481.189C391.786 481.189 386.091 474.724 386.091 466.749C386.091 458.775 391.786 452.31 398.812 452.31C405.837 452.31 411.532 458.775 411.532 466.749C411.532 474.724 405.837 481.189 398.812 481.189Z" fill="#FEFEFE"/>
<path d="M398.812 481.456C405.975 481.456 411.867 474.838 411.867 466.683C411.867 458.527 406.042 451.909 398.812 451.909C391.581 451.909 385.757 458.527 385.757 466.683C385.757 474.838 391.648 481.456 398.812 481.456ZM398.812 452.645C405.64 452.645 411.197 458.995 411.197 466.749C411.197 474.504 405.64 480.855 398.812 480.855C391.983 480.855 386.426 474.504 386.426 466.749C386.426 458.995 392.05 452.645 398.812 452.645Z" fill="#3F3D56"/>
<path d="M44.6549 452.11H50.8142C51.6176 445.759 57.0402 440.879 63.6011 440.879H200.444V466.683H63.6011C57.3749 466.683 52.153 462.271 50.9479 456.388H44.6549V452.11Z" fill="#3F3D56"/>
<path d="M68.9567 458.728C68.9567 458.728 60.4544 390.676 140.056 372.159C168.777 365.474 234.721 361.129 219.925 458.728H68.9567Z" fill="#FFD078"/>
<path d="M68.6223 459.062H220.127L220.194 458.795C225.683 422.496 220.528 396.693 204.862 382.253C185.715 364.539 155.923 368.148 139.922 371.892C121.712 376.103 106.649 383.323 95.0669 393.283C85.828 401.238 78.7987 410.998 74.2462 422.295C66.4802 441.481 68.4886 458.594 68.5556 458.795L68.6223 459.062ZM219.591 458.394H69.2251C69.0242 456.054 67.7522 440.144 74.9157 422.496C82.0122 404.982 99.0839 382.053 140.056 372.494C155.923 368.817 185.447 365.207 204.394 382.721C219.926 397.027 225.014 422.496 219.591 458.394Z" fill="#3F3D56"/>
<path d="M252.396 355.715H152.576C142.199 355.715 133.763 347.292 133.763 336.93C133.763 325.967 143.136 317.344 154.049 318.213L253.534 326.101C261.233 326.702 267.191 333.12 267.191 340.874C267.191 349.03 260.563 355.715 252.396 355.715Z" fill="#3F3D56"/>
<path d="M354.692 451.174H468.772C468.772 451.174 466.898 434.395 455.583 419.154C430.813 386.064 379.33 390.61 361.12 427.643C357.839 434.194 355.563 441.949 354.692 451.174Z" fill="#FFD078"/>
<path d="M354.291 451.508H469.107L469.04 451.107C469.04 450.907 467.032 434.061 455.785 418.953C444.069 403.244 425.323 394.955 405.64 396.76C386.092 398.565 369.354 410.062 360.718 427.51C357.304 434.529 355.094 442.417 354.291 451.107V451.508ZM468.371 450.84H355.094C355.898 442.417 358.04 434.663 361.388 427.844C369.89 410.597 386.426 399.233 405.774 397.495C425.189 395.69 443.734 403.912 455.316 419.421C465.492 433.125 467.969 448.3 468.371 450.84Z" fill="#3F3D56"/>
<path d="M68.1537 463.14H361.588V454.316H468.639V446.294H361.388C357.036 446.294 353.554 449.837 353.554 454.115V455.118H68.1537V463.14Z" fill="#3F3D56"/>
<path d="M274.02 506.39H293.636V498.369H276.765L239.006 469.624L234.186 475.975L274.02 506.39Z" fill="#3F3D56"/>
<path d="M372.97 264.602H397.406C398.879 264.602 400.352 264.401 401.691 264.067C409.457 262.128 415.214 255.109 415.214 246.753C415.214 241.807 413.206 237.395 409.993 234.186C407.716 231.913 404.904 230.309 401.691 229.506C400.285 229.172 398.879 228.972 397.339 228.972H393.791C381.539 228.972 369.824 235.055 363.463 245.55C363.129 246.085 362.794 246.686 362.459 247.288C358.375 255.176 364.066 264.602 372.97 264.602Z" fill="#FFD078"/>
<path d="M372.969 264.935H397.405C398.878 264.935 400.351 264.734 401.824 264.4C409.925 262.394 415.615 255.175 415.615 246.752C415.615 241.872 413.741 237.326 410.259 233.917C407.916 231.578 404.97 229.906 401.824 229.104C400.351 228.77 398.878 228.569 397.405 228.569H393.857C381.271 228.569 369.555 234.987 363.262 245.348C362.927 245.95 362.592 246.485 362.257 247.086C360.249 250.83 360.316 255.309 362.525 258.985C364.801 262.729 368.684 264.935 372.969 264.935ZM397.405 229.305C398.811 229.305 400.284 229.505 401.623 229.839C404.703 230.575 407.514 232.179 409.791 234.452C413.071 237.728 414.946 242.14 414.946 246.819C414.946 254.907 409.456 261.86 401.69 263.798C400.284 264.133 398.878 264.333 397.472 264.333H373.036C368.952 264.333 365.27 262.261 363.195 258.718C361.119 255.242 360.985 251.03 362.927 247.487C363.262 246.886 363.596 246.351 363.931 245.749C370.09 235.588 381.606 229.305 393.924 229.305H397.405Z" fill="#3F3D56"/>
<path d="M389.439 246.819C389.439 253.905 392.519 260.256 397.406 264.668H397.473C407.314 264.668 415.348 256.713 415.348 246.819C415.348 241.872 413.339 237.46 410.126 234.252C406.912 231.043 402.427 229.038 397.54 229.038H397.473C392.452 233.383 389.439 239.733 389.439 246.819Z" fill="#3F3D56"/>
<path d="M394.325 246.819C394.325 253.638 397.137 259.721 401.69 264.133C409.456 262.194 415.213 255.175 415.213 246.819C415.213 241.872 413.205 237.46 409.992 234.252C407.715 231.979 404.903 230.374 401.69 229.572C397.137 233.851 394.325 240.001 394.325 246.819Z" fill="#FEFEFE"/>
<path d="M401.624 264.467L401.825 264.4C409.926 262.394 415.616 255.175 415.616 246.752C415.616 241.872 413.742 237.326 410.26 233.917C407.917 231.577 404.971 229.906 401.825 229.104L401.624 229.037L401.49 229.171C396.67 233.783 393.992 240 393.992 246.685C393.992 253.37 396.67 259.587 401.49 264.199L401.624 264.467ZM401.825 229.906C404.837 230.708 407.582 232.246 409.792 234.452C413.072 237.727 414.947 242.139 414.947 246.819C414.947 254.84 409.591 261.726 401.825 263.731C397.205 259.252 394.661 253.236 394.661 246.819C394.661 240.334 397.205 234.385 401.825 229.906Z" fill="#3F3D56"/>
<path d="M348.935 248.357H362.124V253.772H348.935V248.357Z" fill="#FFD078"/>
<path d="M348.668 254.172H362.526V248.089H348.668V254.172ZM361.79 253.504H349.27V248.757H361.79V253.504Z" fill="#3F3D56"/>
<path d="M367.078 246.552H361.79C359.313 246.552 357.371 248.557 357.371 250.964C357.371 253.437 359.379 255.376 361.79 255.376H367.078C369.556 255.376 371.497 253.37 371.497 250.964C371.497 248.557 369.556 246.552 367.078 246.552Z" fill="#3F3D56"/>
<path d="M351.479 251.03C351.479 253.504 349.471 255.442 347.061 255.442H332.6C330.123 255.442 328.181 253.437 328.181 251.03C328.181 248.557 330.19 246.618 332.6 246.618H347.061C349.471 246.551 351.479 248.557 351.479 251.03Z" fill="#3F3D56"/>
<path d="M112.541 441.615H177.882V445.358H112.541V441.615Z" fill="white"/>
<path d="M112.206 445.692H178.217V441.28H112.206V445.692ZM177.547 445.024H112.875V441.949H177.547V445.024Z" fill="black"/>
<path d="M112.541 431.721H177.882V435.464H112.541V431.721Z" fill="white"/>
<path d="M112.206 435.799H178.217V431.387H112.206V435.799ZM177.547 435.13H112.875V432.055H177.547V435.13Z" fill="black"/>
<path d="M112.541 421.895H177.882V425.638H112.541V421.895Z" fill="white"/>
<path d="M112.206 425.972H178.217V421.56H112.206V425.972ZM177.547 425.304H112.875V422.229H177.547V425.304Z" fill="black"/>
<path d="M212.026 506.324H349.27V507.661H212.026V506.324Z" fill="#3F3D56"/>
<path d="M479.36 533.966H909.023V535H479.36V533.966Z" fill="#3F3D56"/>
<path d="M577.247 533.828H629.596C629.596 533.828 626.293 522.571 603.098 513.322L603.17 510.74L603.386 496.758H578.611L578.181 509.091L577.247 533.828Z" fill="#3F3D56"/>
<path d="M576.817 534.187H630.028L629.884 533.757C629.741 533.327 626.294 522.285 603.386 513.107L603.602 496.472H578.109L576.817 534.187ZM629.094 533.47H577.607L578.899 497.117H602.956L602.74 513.537L602.956 513.609C623.062 521.711 628.161 531.319 629.094 533.47Z" fill="#3F3D56"/>
<path d="M509.028 533.829H561.377C561.377 533.829 558.074 522.571 534.879 513.322L535.095 511.601L537.105 496.758H512.331L511.182 509.665L509.028 533.829Z" fill="#3F3D56"/>
<path d="M508.597 534.187H561.88L561.737 533.757C561.593 533.327 558.146 522.285 535.239 513.107L537.465 496.4H511.972L508.597 534.187ZM560.875 533.47H509.387L512.619 497.117H536.675L534.449 513.537L534.736 513.608C554.915 521.711 559.942 531.319 560.875 533.47Z" fill="#3F3D56"/>
<path d="M818.242 533.829H870.591L867.216 507.657L865.851 496.758H841.077L844.021 510.167L844.739 516.19C820.396 523.647 818.242 533.829 818.242 533.829Z" fill="#3F3D56"/>
<path d="M817.81 534.187H871.021L866.21 496.4H840.646L843.734 510.239L844.38 515.903C820.395 523.288 817.954 533.327 817.882 533.757L817.81 534.187ZM870.232 533.47H818.744C819.534 531.462 823.914 522.93 844.883 516.548L845.17 516.477L844.452 510.167L841.579 497.189H865.564L870.232 533.47Z" fill="#3F3D56"/>
<path d="M757.921 533.829H810.27L808.978 508.087L808.403 496.758H783.628L784.275 510.525L784.418 515.401C761.224 524.722 757.921 533.829 757.921 533.829Z" fill="#3F3D56"/>
<path d="M757.418 534.187H810.701L808.762 496.4H783.269L783.987 510.597L784.131 515.258C761.224 524.436 757.777 533.398 757.633 533.757L757.418 534.187ZM809.911 533.47H758.495C759.572 531.462 764.886 523.647 784.562 515.76L784.777 515.688L784.634 510.525L783.987 497.117H808.044L809.911 533.47Z" fill="#3F3D56"/>
<path d="M618.394 20.1526L581.986 11.9785L578.037 25.8171C577.031 25.1001 576.026 24.6698 575.092 24.6698C570.784 24.6698 569.922 29.8324 569.922 29.8324C568.702 35.4252 572.364 38.8669 574.015 41.3048L561.52 81.243L592.47 86.0471L595.127 60.521C621.769 73.9294 618.394 20.1526 618.394 20.1526Z" fill="#FFAC71"/>
<path d="M592.83 86.3338L595.486 60.9512C600.729 63.4608 605.253 63.6042 608.843 61.238C620.764 53.3507 618.896 21.4432 618.825 20.0808V19.794L581.771 11.4766L577.893 25.1C576.959 24.4547 576.026 24.1679 575.164 24.1679C570.64 24.1679 569.635 29.5455 569.635 29.6173C568.558 34.493 571.071 37.7196 572.866 40.0858C573.154 40.4443 573.441 40.8028 573.656 41.1613L561.089 81.3147L592.83 86.3338ZM594.84 59.8757L592.183 85.5451L562.023 80.8127L574.446 41.1613L574.374 41.0179C574.087 40.6594 573.8 40.2292 573.441 39.799C571.718 37.5045 569.348 34.4213 570.353 29.9041C570.425 29.6889 571.215 25.0283 575.164 25.0283C576.026 25.0283 576.959 25.3868 577.893 26.1038L578.324 26.3906L582.345 12.4087L618.178 20.4394C618.322 23.5943 619.543 53.4224 608.484 60.6644C605.037 62.9588 600.585 62.7437 595.415 60.1625L594.84 59.8757Z" fill="#3F3D56"/>
<path d="M629.31 4.52156C627.658 4.16305 623.493 4.52156 620.98 6.60093C621.123 6.31412 621.267 6.02732 621.41 5.74051C625.145 -5.44506 609.418 2.87241 601.088 4.52156C599.365 4.88008 595.559 5.382 595.559 5.382C570.641 -0.282488 573.155 25.1002 573.155 25.1002C579.689 24.168 581.628 33.0591 581.628 33.0591C588.306 29.9042 590.389 25.387 590.604 23.451C597.067 26.3908 613.655 31.9836 627.371 22.0887C636.778 15.2769 633.474 5.31029 629.31 4.52156Z" fill="#2F2E41"/>
<path d="M773.934 110.856C773.934 110.856 784.059 91.9985 784.921 82.6055L780.684 61.9552C780.684 61.9552 780.181 42.1653 806.248 46.9694C806.248 46.9694 806.105 37.6481 812.28 35.4253C812.28 35.4253 809.264 40.6596 810.341 45.8221C810.341 45.8221 815.368 34.3498 824.847 40.3728C824.847 40.3728 832.172 44.3881 830.233 51.7017C830.233 51.7017 830.376 60.0192 818.959 60.1626C818.959 60.1626 819.102 70.5594 844.307 84.6848C844.307 84.6848 865.276 94.7232 863.553 116.592C861.829 138.462 842.297 152.228 842.297 152.228L770.487 152.3L773.934 110.856Z" fill="#2F2E41"/>
<path d="M813.789 118.887L810.701 82.8207C810.701 82.8207 816.087 79.6658 814.722 73.4994C814.722 73.4994 813.43 68.5519 808.475 72.3522L808.331 63.6045C808.331 63.6045 790.953 70.1294 780.828 60.3062C780.828 60.3062 773.504 94.4365 788.943 94.3648L785.639 123.046L813.789 118.887Z" fill="#FFAC71"/>
<path d="M785.28 123.476L814.219 119.245L811.132 83.0356C812.137 82.3902 816.374 79.1636 815.153 73.4274C815.153 73.3557 814.579 71.2764 812.855 70.7027C811.706 70.3442 810.414 70.6311 808.906 71.6349L808.762 63.1023L808.259 63.2457C808.116 63.3174 791.025 69.5555 781.115 60.0191L780.685 59.5889L780.541 60.2342C780.325 61.1663 775.658 83.3941 782.408 91.6399C783.988 93.5758 786.07 94.5797 788.584 94.6514L785.28 123.476ZM813.429 118.6L786.142 122.615L789.445 94.006H789.014C786.501 94.006 784.49 93.0739 782.982 91.2096C777.094 83.9677 780.469 64.7514 781.187 61.0229C790.45 69.3404 805.243 65.0383 808.116 64.1061L808.259 73.0689L808.834 72.6387C810.342 71.4915 811.634 71.0613 812.64 71.4198C814.004 71.85 814.507 73.6425 814.507 73.6425C815.799 79.5221 810.844 82.4619 810.629 82.6053L810.414 82.7488V82.9639L813.429 118.6Z" fill="#2F2E41"/>
<path d="M578.11 509.163L603.099 510.74L603.315 496.758H578.541L578.11 509.163Z" fill="#3F3D56"/>
<path d="M511.182 509.665L535.095 511.601L537.105 496.758H512.331L511.182 509.665Z" fill="#3F3D56"/>
<path d="M546.872 208.228L547.877 213.677L553.981 247.306L569.779 333.779L570.712 362.316L575.524 505.291H617.317L621.985 334.639L615.378 239.49L613.152 208.228H546.872Z" fill="#CDCBCC"/>
<path d="M575.164 505.65H617.676V505.291L622.343 334.64L613.51 207.87H546.44L569.419 333.851L575.164 505.65ZM616.958 504.933H575.81L570.065 333.779L547.23 208.587H612.72L621.625 334.711L616.958 504.933Z" fill="#3F3D56"/>
<path d="M841.077 496.758L844.093 510.167L867.288 507.657L865.851 496.758H841.077Z" fill="#3F3D56"/>
<path d="M783.628 496.758L784.275 510.597L808.978 508.087L808.403 496.758H783.628Z" fill="#3F3D56"/>
<path d="M504.361 506.008H546.586L570.714 362.316L576.099 330.122L585.291 247.091L588.954 213.677H520.375L520.662 240.064L521.668 327.11L504.361 506.008Z" fill="#CDCBCC"/>
<path d="M504.001 506.366H546.944L547.015 506.079L576.529 330.194L589.455 213.319H520.087L521.38 327.11L504.001 506.366ZM546.297 505.649H504.791L522.026 327.182L520.733 214.036H588.594L575.739 330.05L546.297 505.649Z" fill="#3F3D56"/>
<path d="M763.666 312.77L774.724 505.291H812.927L811.634 383.253L810.845 313.63L816.374 249.098L818.528 223.357L786.501 222.855L768.405 222.497L766.897 251.393L763.666 312.77Z" fill="#3F3D56"/>
<path d="M774.437 505.65H813.286V505.291L811.204 313.63L818.959 222.999L768.118 222.138L763.306 312.77L774.437 505.65ZM812.568 504.932H775.083L764.024 312.77L768.764 222.855L818.169 223.716L810.486 313.63L812.568 504.932Z" fill="#3F3D56"/>
<path d="M520.374 213.677L520.661 240.064C532.581 244.007 543.784 246.302 553.981 247.306C565.686 248.525 576.242 248.166 585.29 247.019C598.862 245.37 609.202 241.928 615.306 239.418L613.152 208.156H546.871L547.877 213.606H520.374V213.677Z" fill="#3F3D56"/>
<path d="M786.071 219.844L786.501 222.855L790.595 252.612L801.438 331.054L811.635 383.254L835.188 504.144L870.16 504.861L854.074 327.254L849.622 234.471L848.832 218.123L786.071 219.844Z" fill="#3F3D56"/>
<path d="M870.591 505.219V504.789L854.505 327.182L849.192 217.693L785.712 219.414L801.079 331.126L834.901 504.502L870.591 505.219ZM848.473 218.482L853.715 327.254L869.801 504.431L835.476 503.714L801.797 330.911L786.501 220.131L848.473 218.482Z" fill="#3F3D56"/>
<path d="M771.422 116.018L743.56 152.228L704.639 159.828V187.792L750.238 183.49C753.397 183.203 756.342 182.056 758.927 180.263L777.167 167.357L771.422 116.018Z" fill="#CDCBCC"/>
<path d="M704.279 188.223L750.309 183.849C753.468 183.562 756.556 182.415 759.213 180.551L777.668 167.501L771.78 115.086L743.415 151.87L704.351 159.542V188.223H704.279ZM776.878 167.214L758.783 180.049C756.269 181.841 753.325 182.917 750.237 183.204L704.997 187.506V160.187L743.774 152.587L743.846 152.515L771.206 117.022L776.878 167.214Z" fill="#3F3D56"/>
<path d="M594.267 76.8689C594.267 76.8689 588.881 89.5603 564.681 64.5361L523.175 79.8087C517.287 82.39 513.122 87.7677 512.045 94.0775L505.51 130.933H528.202L517.718 229.452C517.718 229.452 548.309 237.554 571.719 238.056C610.352 238.916 618.897 232.033 618.897 232.033L617.174 197.042L616.887 117.452C617.318 106.123 612.578 97.5909 605.828 88.413L594.267 76.8689Z" fill="#FFD078"/>
<path d="M578.181 238.486C610.999 238.486 618.754 232.535 619.041 232.32L619.185 232.176L617.461 196.97L617.174 117.381C617.605 106.267 613.009 97.591 606.044 88.1263L594.123 76.2237L593.908 76.7256C593.836 76.7973 592.83 79.0201 589.814 79.5937C585.865 80.3107 578.397 78.2313 564.897 64.2493L564.753 64.106L564.538 64.1777L523.031 79.4503C516.999 82.1033 512.763 87.5526 511.685 94.0058L505.079 131.291H527.771L517.286 229.738L517.574 229.81C517.861 229.882 548.452 237.913 571.647 238.486C573.873 238.486 576.099 238.486 578.181 238.486ZM618.466 231.818C617.174 232.678 607.049 238.486 571.647 237.697C549.816 237.196 521.308 229.954 518.076 229.165L528.561 130.502H505.941L512.404 94.0775C513.481 87.8394 517.502 82.6052 523.318 80.0956L564.609 64.9664C578.253 79.02 586.009 81.0994 590.03 80.3107C592.615 79.8088 593.908 78.2313 594.41 77.4426L605.613 88.5565C612.65 98.1646 616.959 106.41 616.528 117.381L616.815 196.97L618.466 231.818Z" fill="#3F3D56"/>
<path d="M619.041 113.868H733.577V202.922H619.041V113.868Z" fill="#3F3D56"/>
<path d="M599.293 113.868H704.063V202.922H599.293V113.868Z" fill="#FEFEFE"/>
<path d="M598.933 203.281H704.422V113.509H598.933V203.281ZM703.704 202.564H599.651V114.226H703.704V202.564Z" fill="#3F3D56"/>
<path d="M635.197 113.868V136.095L641.732 132.51L646.759 135.88L652.791 132.51L658.392 136.095V113.868H635.197Z" fill="#3F3D56"/>
<path d="M658.32 157.606H682.52V159.04H658.32V157.606Z" fill="#3F3D56"/>
<path d="M658.32 166.999H682.52V168.433H658.32V166.999Z" fill="#3F3D56"/>
<path d="M658.32 176.392H682.52V177.826H658.32V176.392Z" fill="#3F3D56"/>
<path d="M612.219 155.67H651.355V180.049H612.219V155.67Z" fill="#FEFEFE"/>
<path d="M611.859 180.407H651.714V155.312H611.859V180.407ZM650.996 179.69H612.578V156.029H650.996V179.69Z" fill="#3F3D56"/>
<path d="M766.897 251.392C772.929 252.253 781.187 252.97 790.594 252.611C798.493 252.325 807.254 251.321 816.302 249.098C827.289 246.373 838.707 241.784 849.55 234.471L848.76 218.123L786.07 219.843L786.501 222.855L768.405 222.568L766.897 251.392Z" fill="#3F3D56"/>
<path d="M704.279 205.862C704.925 206.937 705.787 207.798 706.792 208.515C707.797 209.232 708.946 209.734 710.167 209.949L715.84 211.239C719.502 212.028 723.237 212.458 726.971 212.458H731.925C733.362 212.458 734.798 212.1 736.019 211.383L741.333 208.443L746.934 207.798L767.759 205.288V189.298L750.237 192.023L742.123 193.314L724.529 188.438C724.529 188.438 721.441 194.82 731.064 198.046L721.729 202.635H706.074C704.422 202.492 703.345 204.428 704.279 205.862Z" fill="#E78D4C"/>
<path d="M727.043 212.745H731.997C733.505 212.745 735.013 212.386 736.306 211.598L741.548 208.73L768.189 205.503V188.796L742.194 192.884L724.385 187.936L724.242 188.223C724.17 188.295 723.093 190.589 724.242 193.17C725.104 195.25 727.114 196.899 730.202 198.046L721.729 202.205H706.146C705.212 202.205 704.35 202.707 703.92 203.495C703.489 204.284 703.489 205.288 703.992 206.077C704.71 207.152 705.571 208.084 706.577 208.801C707.654 209.518 708.803 210.02 710.023 210.307L715.697 211.598C719.503 212.386 723.237 212.745 727.043 212.745ZM767.471 204.929L741.261 208.084L735.947 211.024C734.726 211.669 733.362 212.028 731.997 212.028H727.043C723.308 212.028 719.574 211.598 715.984 210.809L710.311 209.518C709.162 209.232 708.085 208.801 707.08 208.084C706.146 207.439 705.284 206.579 704.638 205.575C704.279 205.001 704.279 204.284 704.566 203.711C704.853 203.137 705.5 202.778 706.146 202.778H721.872L732.069 197.759L731.207 197.472C727.904 196.397 725.75 194.748 724.888 192.74C724.098 190.948 724.529 189.298 724.816 188.653L742.194 193.457L767.471 189.513V204.929Z" fill="#3F3D56"/>
<path d="M633.905 59.0874H704.925V114.298H633.905V59.0874Z" fill="#3F3D56"/>
<path d="M621.696 59.0869H686.613V114.298H621.696V59.0869Z" fill="#FFD078"/>
<path d="M621.338 114.656H686.972V58.7285H621.338V114.656ZM686.254 113.939H622.056V59.4455H686.254V113.939Z" fill="#3F3D56"/>
<path d="M643.887 59.0869V72.8538L647.98 70.631L651.139 72.7104L654.874 70.631L658.32 72.8538V59.0869H643.887Z" fill="#3F3D56"/>
<path d="M658.249 85.9038H673.257V87.3379H658.249V85.9038Z" fill="#3F3D56"/>
<path d="M658.249 91.7119H673.257V93.1459H658.249V91.7119Z" fill="#3F3D56"/>
<path d="M658.249 97.5913H673.257V99.0253H658.249V97.5913Z" fill="#3F3D56"/>
<path d="M629.668 84.9717H653.94V100.101H629.668V84.9717Z" fill="#FEFEFE"/>
<path d="M629.309 100.46H654.299V84.6133H629.309V100.46ZM653.581 99.7425H630.027V85.3303H653.581V99.7425Z" fill="#3F3D56"/>
<path d="M747.006 207.726L767.831 205.217V189.227L750.309 191.952L747.006 207.726Z" fill="#3F3D56"/>
<path d="M753.325 190.374L766.466 187.864L768.62 123.476C768.764 119.389 770.631 115.517 773.791 112.864L787.219 101.678C787.219 101.678 789.804 118.098 814.866 101.678L838.061 109.996C844.595 112.362 849.55 117.883 851.13 124.623L865.779 195.68C867.144 202.277 862.26 208.515 855.51 208.73L848.545 208.945L851.92 231.603C851.92 231.603 828.007 241.856 803.448 243.362C775.155 245.155 765.892 238.415 766.251 237.482L767.687 213.39L753.325 213.964V190.374Z" fill="#CDCBCC"/>
<path d="M794.257 244.151C797.057 244.151 800.145 244.079 803.448 243.864C827.792 242.358 851.776 232.176 852.063 232.033L852.351 231.889L852.279 231.603L848.975 209.375L855.582 209.16C858.885 209.016 861.973 207.511 864.055 204.858C866.138 202.276 866.928 198.906 866.21 195.68L851.561 124.623C849.909 117.668 844.954 112.147 838.204 109.709L814.866 101.32L814.722 101.391C805.028 107.773 797.344 109.996 792.461 107.844C788.368 106.052 787.65 101.678 787.65 101.678L787.578 101.033L773.719 112.648C770.487 115.373 768.549 119.317 768.405 123.547L766.251 187.649L753.109 190.159V214.538L767.471 213.964L766.035 237.626C765.963 237.841 766.035 237.984 766.179 238.199C767.041 239.562 774.581 244.151 794.257 244.151ZM851.489 231.459C848.832 232.535 826.284 241.641 803.376 243.075C776.304 244.796 767.041 238.63 766.61 237.626V237.554L768.046 213.032L753.612 213.605V190.589L766.753 188.079L768.907 123.404C769.051 119.389 770.918 115.66 773.934 113.079L786.86 102.252C787.219 103.614 788.44 106.841 791.958 108.346C797.129 110.641 804.741 108.49 814.794 101.965L837.845 110.211C844.308 112.505 849.119 117.883 850.699 124.623L865.348 195.68C865.995 198.691 865.204 201.846 863.337 204.284C861.399 206.722 858.526 208.156 855.438 208.299L848.042 208.515L851.489 231.459Z" fill="#3F3D56"/>
<path d="M848.486 208.54L848.526 209.256L767.085 213.994L767.045 213.278L848.486 208.54Z" fill="#3F3D56"/>
<path d="M766.179 188.223L828.151 175.46L822.55 144.628L821.832 144.771L827.361 174.886L766.035 187.578L766.179 188.223Z" fill="#3F3D56"/>
<path d="M502.133 176.249C501.487 183.491 506.011 190.231 512.977 192.382L586.367 215.183L593.332 217.621C595.989 218.553 598.861 218.84 601.662 218.481L615.737 216.761C616.599 216.617 617.532 216.402 618.322 216.115L634.766 210.092C636.849 209.303 638.716 207.869 639.937 206.005L640.152 205.647C641.014 204.356 640.08 202.635 638.501 202.635H612.074C619.758 197.759 619.184 193.457 619.184 193.457L602.955 195.68L591.106 197.114L535.166 169.867L541.629 137.673L542.922 131.148H505.724L505.365 134.948L502.133 176.249Z" fill="#FFAC71"/>
<path d="M599.436 218.983C600.226 218.983 601.016 218.912 601.734 218.84L615.809 217.119C616.743 216.976 617.676 216.761 618.466 216.474L634.91 210.451C637.137 209.662 638.932 208.228 640.224 206.22L640.44 205.862C640.942 205.145 640.942 204.213 640.512 203.496C640.081 202.707 639.363 202.277 638.429 202.277H613.224C619.974 197.616 619.543 193.601 619.471 193.386L619.4 193.027L602.811 195.25L591.035 196.612L535.454 169.58L543.281 130.646H505.365L501.488 176.177C500.841 183.634 505.437 190.446 512.618 192.669L586.008 215.47L592.973 217.908C595.199 218.625 597.354 218.983 599.436 218.983ZM638.644 202.994C639.219 202.994 639.793 203.281 640.081 203.854C640.368 204.356 640.368 205.001 640.009 205.503L639.793 205.862C638.573 207.654 636.849 209.017 634.839 209.805L618.394 215.828C617.604 216.115 616.743 216.33 615.881 216.474L601.806 218.195C599.077 218.553 596.205 218.266 593.62 217.334L586.654 214.896L513.264 192.095C506.442 189.944 502.062 183.491 502.637 176.32L506.442 131.435H542.85L535.095 170.011L535.31 170.154L591.322 197.401L603.314 195.967L619.112 193.816C619.041 194.891 618.25 198.405 612.147 202.277L611.141 202.922H638.644V202.994Z" fill="#3F3D56"/>
<path d="M546.354 115.607L547.052 115.773L543.066 132.295L542.367 132.128L546.354 115.607Z" fill="#3F3D56"/>
<path d="M505.653 134.805L541.773 137.601L543.138 131.004H505.94L505.653 134.805Z" fill="#3F3D56"/>
<path d="M699.136 323.2C697.248 323.199 695.379 323.57 693.635 324.291C691.891 325.012 690.306 326.068 688.971 327.401C687.636 328.733 686.577 330.315 685.854 332.057C685.131 333.798 684.759 335.664 684.758 337.549C684.758 333.742 683.244 330.091 680.549 327.399C677.854 324.707 674.198 323.195 670.386 323.195C674.198 323.195 677.854 321.683 680.549 318.991C683.244 316.299 684.758 312.648 684.758 308.841C684.758 312.648 686.273 316.299 688.968 318.991C691.663 321.683 695.319 323.195 699.131 323.195L699.136 323.2Z" fill="#555185"/>
<path d="M737.209 413.912C740.448 413.912 743.073 411.29 743.073 408.056C743.073 404.822 740.448 402.2 737.209 402.2C733.971 402.2 731.346 404.822 731.346 408.056C731.346 411.29 733.971 413.912 737.209 413.912Z" fill="#FFD078"/>
<path d="M496.625 347.192C499.864 347.192 502.489 344.57 502.489 341.336C502.489 338.102 499.864 335.48 496.625 335.48C493.387 335.48 490.762 338.102 490.762 341.336C490.762 344.57 493.387 347.192 496.625 347.192Z" fill="#FFD078"/>
<path d="M696.954 251.697C701.091 251.697 704.445 248.347 704.445 244.215C704.445 240.083 701.091 236.733 696.954 236.733C692.816 236.733 689.462 240.083 689.462 244.215C689.462 248.347 692.816 251.697 696.954 251.697Z" fill="#FFD078"/>
<path d="M286.545 407.685C283.419 407.685 280.422 408.925 278.212 411.132C276.002 413.34 274.76 416.333 274.76 419.455C274.76 416.333 273.519 413.34 271.309 411.132C269.099 408.925 266.101 407.685 262.976 407.685C266.101 407.685 269.099 406.445 271.309 404.238C273.519 402.03 274.76 399.037 274.76 395.915C274.76 399.037 276.002 402.03 278.212 404.238C280.422 406.445 283.419 407.685 286.545 407.685Z" fill="#555185"/>
<path d="M355.453 399.959C357.613 399.959 359.364 398.21 359.364 396.053C359.364 393.897 357.613 392.148 355.453 392.148C353.294 392.148 351.543 393.897 351.543 396.053C351.543 398.21 353.294 399.959 355.453 399.959Z" fill="#FFD078"/>
<path d="M466.134 203.473C464.247 203.473 462.378 203.843 460.634 204.564C458.89 205.285 457.305 206.342 455.97 207.674C454.635 209.007 453.576 210.589 452.853 212.33C452.13 214.071 451.758 215.938 451.757 217.823C451.757 214.016 450.243 210.365 447.548 207.673C444.853 204.981 441.197 203.469 437.385 203.469C441.197 203.469 444.853 201.956 447.548 199.264C450.243 196.572 451.757 192.921 451.757 189.114C451.757 192.921 453.272 196.572 455.967 199.264C458.662 201.956 462.318 203.469 466.13 203.469L466.134 203.473Z" fill="#555185"/>
<path d="M446.236 112.477L446.243 112.477L446.251 112.476C448.147 112.417 450.036 112.738 451.805 113.422C453.574 114.105 455.187 115.137 456.55 116.455C457.912 117.773 458.995 119.351 459.734 121.096C460.474 122.84 460.855 124.715 460.855 126.609C460.855 128.503 460.474 130.378 459.734 132.123C458.995 133.867 457.912 135.445 456.55 136.764C455.187 138.082 453.574 139.113 451.805 139.797C450.036 140.48 448.147 140.802 446.251 140.742L446.243 140.742H446.235L386.503 140.742L386.5 140.742C384.727 140.752 382.978 140.34 381.397 139.538C379.816 138.737 378.45 137.57 377.412 136.135C376.374 134.7 375.694 133.038 375.43 131.287C375.165 129.537 375.322 127.748 375.89 126.071C376.457 124.394 377.417 122.876 378.69 121.644C379.963 120.412 381.513 119.502 383.209 118.989C384.906 118.476 386.701 118.375 388.445 118.695C390.189 119.015 391.83 119.746 393.234 120.827L394.212 121.581L394.034 120.359C393.129 114.154 394.704 107.842 398.42 102.787C402.136 97.732 407.695 94.34 413.894 93.3438C420.094 92.3476 426.437 93.8274 431.553 97.4633C436.669 101.099 440.147 106.599 441.237 112.775L441.336 113.341L441.883 113.164C443.289 112.709 444.758 112.477 446.236 112.477Z" fill="white" stroke="black"/>
<path d="M459.471 533.508C461.631 533.508 463.382 531.759 463.382 529.602C463.382 527.445 461.631 525.696 459.471 525.696C457.312 525.696 455.561 527.445 455.561 529.602C455.561 531.759 457.312 533.508 459.471 533.508Z" fill="#FFD078"/>
<path d="M977.786 91.173C978.715 90.9255 979.685 90.801 980.661 90.8045C983.086 90.8813 985.367 91.7423 987.03 93.1875C988.691 94.6318 989.6 96.5396 989.601 98.5034C989.602 100.467 988.695 102.376 987.036 103.821C985.375 105.267 983.095 106.13 980.671 106.209H940.771C939.606 106.209 938.46 105.976 937.429 105.533C936.398 105.09 935.517 104.451 934.853 103.675C934.189 102.901 933.761 102.012 933.596 101.085C933.431 100.159 933.53 99.2124 933.89 98.3205C934.249 97.4278 934.861 96.6103 935.684 95.9404C936.507 95.2701 937.515 94.7688 938.626 94.4837C939.738 94.1986 940.917 94.1391 942.063 94.311C943.209 94.4829 944.284 94.8804 945.201 95.4658L946.15 96.0721L945.963 94.9613C945.393 91.5786 946.425 88.1308 948.866 85.3554C951.31 82.5762 954.975 80.6943 959.084 80.1384C963.192 79.5826 967.391 80.401 970.774 82.4061C974.156 84.4105 976.439 87.4295 977.169 90.7958L977.28 91.308L977.786 91.173Z" fill="white" stroke="black"/>
</svg>
